<?xml version="1.0" encoding="UTF-8" standalone="no"?>
<!-- Created with Inkscape (http://www.inkscape.org/) -->

<svg
   xmlns:dc="http://purl.org/dc/elements/1.1/"
   xmlns:cc="http://creativecommons.org/ns#"
   xmlns:rdf="http://www.w3.org/1999/02/22-rdf-syntax-ns#"
   xmlns:svg="http://www.w3.org/2000/svg"
   xmlns="http://www.w3.org/2000/svg"
   xmlns:sodipodi="http://sodipodi.sourceforge.net/DTD/sodipodi-0.dtd"
   xmlns:inkscape="http://www.inkscape.org/namespaces/inkscape"
   width="16"
   height="16"
   id="svg2994"
   version="1.1"
   inkscape:version="0.48.3.1 r9886"
   sodipodi:docname="New document 2">
  <defs
     id="defs2996" />
  <sodipodi:namedview
     id="base"
     pagecolor="#ffffff"
     bordercolor="#666666"
     borderopacity="1.0"
     inkscape:pageopacity="0.0"
     inkscape:pageshadow="2"
     inkscape:zoom="15.839192"
     inkscape:cx="11.25133"
     inkscape:cy="10.399786"
     inkscape:document-units="px"
     inkscape:current-layer="layer1"
     showgrid="false"
     fit-margin-top="0"
     fit-margin-left="0"
     fit-margin-right="0"
     fit-margin-bottom="0"
     inkscape:window-width="1366"
     inkscape:window-height="721"
     inkscape:window-x="-2"
     inkscape:window-y="-3"
     inkscape:window-maximized="1" />
  <metadata
     id="metadata2999">
    <rdf:RDF>
      <cc:Work
         rdf:about="">
        <dc:format>image/svg+xml</dc:format>
        <dc:type
           rdf:resource="http://purl.org/dc/dcmitype/StillImage" />
        <dc:title></dc:title>
      </cc:Work>
    </rdf:RDF>
  </metadata>
  <g
     inkscape:label="Layer 1"
     inkscape:groupmode="layer"
     id="layer1"
     transform="translate(79.013611,-742.07642)">
    <rect
       style="fill:none;fill-opacity:1;fill-rule:nonzero"
       id="rect3011"
       width="16"
       height="16"
       x="-79.013611"
       y="742.07642" />
    <path
       style="fill:#666666;fill-opacity:1;fill-rule:evenodd;stroke:none"
       d="m -73.679388,742.41958 1.766754,2.76982 c -3.047338,0.4802 -5.357248,3.10547 -5.357248,6.29191 0,3.52938 2.842305,6.37171 6.371705,6.37171 3.529387,0 6.371699,-2.84233 6.371699,-6.37171 0,-2.77133 -1.756161,-5.11514 -4.217416,-5.99556 l -4.935494,-3.06617 z m 2.781211,4.78734 c 2.36434,0 4.27439,1.91004 4.27439,4.27439 0,2.36434 -1.91005,4.26301 -4.27439,4.26301 -2.364349,0 -4.274399,-1.89867 -4.274399,-4.26301 0,-2.36435 1.91005,-4.27439 4.274399,-4.27439 z m 0,2.06309 c -1.22201,0 -2.199885,0.98928 -2.199885,2.2113 0,1.22201 0.977875,2.19988 2.199885,2.19988 1.221998,0 2.199874,-0.97787 2.199874,-2.19988 0,-1.22202 -0.977876,-2.2113 -2.199874,-2.2113 z"
       id="path9075"
       inkscape:connector-curvature="0"
       inkscape:export-filename="/home/master/logootodidak.png"
       inkscape:export-xdpi="103.04115"
       inkscape:export-ydpi="103.04115" />
  </g>
</svg>
